<svg id="Grupo_17" data-name="Grupo 17" xmlns="http://www.w3.org/2000/svg" xmlns:xlink="http://www.w3.org/1999/xlink" width="176" height="154.126" viewBox="0 0 176 154.126">
  <defs>
    <clipPath id="clip-path">
      <rect id="Rectángulo_60" data-name="Rectángulo 60" width="176" height="154.126" fill="#2162a0"/>
    </clipPath>
  </defs>
  <g id="Grupo_16" data-name="Grupo 16" clip-path="url(#clip-path)">
    <path id="Trazado_23" data-name="Trazado 23" d="M105.531,0h1.719A25.943,25.943,0,0,1,110.3,3.3,54.057,54.057,0,0,1,114.767,11c1.367,3.11,3.354,4.226,6.717,3.847a36.573,36.573,0,0,1,8.574.06c5.512.691,9.238,5.379,9.313,11.4.065,5.268.012,10.537.019,15.805,0,.6.055,1.207.089,1.908,3.388,0,6.591,0,9.794,0,7.51.007,12.074,4.544,12.108,12.073.023,5.1,0,10.193.005,15.29v1.988c3.44,0,6.638.068,9.831-.024a4.672,4.672,0,0,1,4.784,2.6v46.394a4.969,4.969,0,0,1-5.033,2.446c-3.126-.168-6.268-.042-9.582-.042,0,.788,0,1.407,0,2.025,0,5.04.025,10.079-.018,15.118a16.433,16.433,0,0,1-.388,3.91c-1.36,5.308-5.63,8.321-11.707,8.322q-64.96.011-129.92-.012a22.318,22.318,0,0,1-4.607-.394A18.186,18.186,0,0,1,0,135.4Q0,84.549,0,33.695C0,22.68,7.9,14.783,18.928,14.781q30.16-.006,60.32-.035a5.951,5.951,0,0,0,2.875-.788C89.949,9.346,97.734,4.663,105.531,0m48.453,124.746c-6.351,0-12.475.038-18.6-.024a24.168,24.168,0,0,1-5.1-.531c-13.8-3.149-22.174-15.708-19.913-29.76,1.773-11.024,11.879-20.276,23.059-20.862,5.257-.276,10.535-.144,15.8-.189,1.535-.013,3.07,0,4.673,0,.039-.622.091-1.068.092-1.513.006-5.326.016-10.652,0-15.978-.01-3.034-1.371-4.368-4.426-4.371q-10.74-.011-21.481,0-54.392,0-108.784.007A19.41,19.41,0,0,1,8.394,48.528a6.632,6.632,0,0,0-.939-.408c-.031.531-.068.868-.068,1.2q0,42.866.012,85.732a13.766,13.766,0,0,0,.356,3.4c1.349,5.225,5.66,8.286,11.571,8.287q64.875.005,129.751,0c.4,0,.8.018,1.2-.014a3.621,3.621,0,0,0,3.673-3.593c.086-6.059.03-12.12.03-18.391M47.075,43.657l.088.275h78.306L105.022,8.9,47.075,43.657m121.434,37.1H166.5q-14.691,0-29.381.013a26.02,26.02,0,0,0-4.1.294c-7.1,1.155-12.064,5.107-14.481,11.853s-1.168,12.987,3.589,18.379c3.835,4.347,8.808,6.114,14.551,6.082,10.02-.054,20.04-.013,30.061-.019.557,0,1.115-.054,1.771-.087ZM67.845,22.541l-.075-.381h-1.8q-23.106,0-46.212,0c-.744,0-1.487.055-2.231.068A10.856,10.856,0,0,0,7.474,34.051a10.985,10.985,0,0,0,10.747,9.962c4.123.04,8.247.055,12.369-.022a5.758,5.758,0,0,0,2.714-.755c9.1-5.4,18.157-10.858,27.227-16.3q3.658-2.2,7.314-4.394m53.585-.256L131.7,39.87c.3-4.71.33-9.283.281-13.855-.021-2.006-1.164-3.564-2.9-3.687-2.426-.171-4.873-.043-7.652-.043" transform="translate(0)" fill="#2162a0"/>
    <path id="Trazado_24" data-name="Trazado 24" d="M372.718,277.639a11.042,11.042,0,0,1,.4-22.08,11.042,11.042,0,1,1-.4,22.08m.153-14.594a3.68,3.68,0,0,0-3.6,3.626,3.821,3.821,0,0,0,3.687,3.6,3.674,3.674,0,0,0,3.541-3.686,3.526,3.526,0,0,0-3.624-3.539" transform="translate(-237.251 -167.537)" fill="#2162a0"/>
  </g>
</svg>
