<svg id="Grupo_9769" data-name="Grupo 9769" xmlns="http://www.w3.org/2000/svg" xmlns:xlink="http://www.w3.org/1999/xlink" width="20.525" height="31.885" viewBox="0 0 20.525 31.885">
  <defs>
    <clipPath id="clip-path">
      <rect id="Rectángulo_4961" data-name="Rectángulo 4961" width="20.525" height="31.885" fill="none"/>
    </clipPath>
  </defs>
  <g id="Grupo_9751" data-name="Grupo 9751" clip-path="url(#clip-path)">
    <path id="Trazado_30523" data-name="Trazado 30523" d="M9.825,0C16.256.025,20.9,4.823,20.687,10.593a10.847,10.847,0,0,1-1.232,4.137,53.657,53.657,0,0,1-5.9,9.414c-.814,1.087-1.666,2.146-2.519,3.2a.693.693,0,0,1-1.189.006A66.162,66.162,0,0,1,1.622,15.137,12.634,12.634,0,0,1,.3,11.354,9.49,9.49,0,0,1,2.545,3.733,9.76,9.76,0,0,1,9.825,0m.607,25.811c.117-.143.2-.231.265-.325,1.207-1.622,2.447-3.22,3.609-4.872a38.7,38.7,0,0,0,4.256-7.4,7.738,7.738,0,0,0,.547-4.6A8.819,8.819,0,0,0,1.64,9.723a8.723,8.723,0,0,0,.978,4.182,63.007,63.007,0,0,0,7.814,11.906" transform="translate(-0.178)"/>
    <path id="Trazado_30524" data-name="Trazado 30524" d="M10.436,271.687a18.646,18.646,0,0,0,6.793-1.148,5.969,5.969,0,0,0,1.332-.751c.7-.53.687-1.022,0-1.573a7.9,7.9,0,0,0-2.919-1.281c-.29-.082-.591-.126-.878-.214a.71.71,0,0,1,.327-1.38,10.682,10.682,0,0,1,4.08,1.522,2.752,2.752,0,0,1,1.323,1.815,2.286,2.286,0,0,1-.938,2.181,8,8,0,0,1-3.421,1.581,24.431,24.431,0,0,1-12.394-.187,6.855,6.855,0,0,1-2.871-1.479,2.224,2.224,0,0,1,.052-3.57,9.076,9.076,0,0,1,3.839-1.728c.233-.06.471-.1.708-.148a.727.727,0,0,1,.885.568.75.75,0,0,1-.584.842c-.976.3-1.957.591-2.919.936a3.319,3.319,0,0,0-.952.6c-.609.5-.628,1.058.029,1.482a10.04,10.04,0,0,0,2.132,1.059,19.642,19.642,0,0,0,6.374.876" transform="translate(0 -241.261)"/>
    <path id="Trazado_30525" data-name="Trazado 30525" d="M76.2,61.578a4.255,4.255,0,1,1-8.51,0,4.255,4.255,0,1,1,8.51,0m-1.442.066a2.825,2.825,0,0,0-2.8-2.892,2.827,2.827,0,0,0-.036,5.654,2.826,2.826,0,0,0,2.838-2.762" transform="translate(-61.558 -52.113)"/>
  </g>
</svg>
