<svg id="Grupo_9746" data-name="Grupo 9746" xmlns="http://www.w3.org/2000/svg" xmlns:xlink="http://www.w3.org/1999/xlink" width="30.86" height="21.681" viewBox="0 0 30.86 21.681">
  <defs>
    <clipPath id="clip-path">
      <rect id="Rectángulo_4958" data-name="Rectángulo 4958" width="30.86" height="21.681" fill="none"/>
    </clipPath>
  </defs>
  <g id="Grupo_9745" data-name="Grupo 9745" clip-path="url(#clip-path)">
    <path id="Trazado_30515" data-name="Trazado 30515" d="M28.449,21.681H2.413a5.8,5.8,0,0,1-.851-.274A2.674,2.674,0,0,1,0,18.833Q0,14.513,0,10.192C0,7.733,0,5.274,0,2.816A2.688,2.688,0,0,1,2.727.009q12.7-.021,25.4,0A2.487,2.487,0,0,1,30.3,1.1,7.461,7.461,0,0,1,30.86,2.41V19.272a.491.491,0,0,0-.045.108,2.665,2.665,0,0,1-1,1.717,3.313,3.313,0,0,1-1.362.583M3.133,1.821c.051.064.067.09.088.111q5.126,5.1,10.26,10.183a2.972,2.972,0,0,0,1.026.656,2.634,2.634,0,0,0,2.945-.712q5.053-5.019,10.1-10.042c.053-.052.1-.109.18-.195ZM19.955,12.092c-.439.447-.843.863-1.251,1.274a4.542,4.542,0,0,1-6.545,0c-.41-.41-.813-.827-1.251-1.273L3.3,19.85H27.565l-7.61-7.757M1.827,18.586l7.6-7.737-7.6-7.716Zm27.2.017V3.08L21.4,10.83,29.029,18.6" transform="translate(0 0)"/>
  </g>
</svg>
