<svg id="Grupo_9750" data-name="Grupo 9750" xmlns="http://www.w3.org/2000/svg" xmlns:xlink="http://www.w3.org/1999/xlink" width="30" height="37" viewBox="0 0 30 37">
  <defs>
    <clipPath id="clip-path">
      <rect id="Rectángulo_4960" data-name="Rectángulo 4960" width="30" height="37" fill="none"/>
    </clipPath>
  </defs>
  <g id="Grupo_9749" data-name="Grupo 9749" clip-path="url(#clip-path)">
    <path id="Trazado_30520" data-name="Trazado 30520" d="M0,66.481c.145-.848.251-1.7.439-2.541A14.745,14.745,0,0,1,13.456,52.649c.118-.008.238,0,.393,0l.261,1.241-2.3,1.681a4.111,4.111,0,0,1,.229.366c.516,1.058.394,1.485-.683,1.949-.89.383-1.65.83-1.725,1.9.6-.291,1.221-.629,1.873-.887a1.056,1.056,0,0,1,.808.041c.893.512,1.765,1.066,2.62,1.641.6.4,1.125.951,1.972.728.1-.027.377.238.424.408a1.525,1.525,0,0,1-1.954,1.994,1.361,1.361,0,0,0-.674-.077c-.3.1-.675.373-.872.275-.771-.381-1.986-.258-1.961-1.638-.247.031-.442.039-.629.082-1.864.427-3.733,3.623-3.2,5.458a1.7,1.7,0,0,0,2.173,1.376,5.9,5.9,0,0,1,1.034-.052,1.436,1.436,0,0,1,1.519,1.314c.111.494.369.956.476,1.451a5.818,5.818,0,0,1,.283,2.131,3.53,3.53,0,0,0,.125,1.935c.21.575.4,1.156.6,1.738a1.145,1.145,0,0,0,1.406-.679c.227-.467.28-1.019.506-1.486a11.927,11.927,0,0,1,.766-1.044c.165-.261.42-.628.345-.85a3.151,3.151,0,0,1,.8-3.312c.372-.424.665-.917,1.007-1.4a5.82,5.82,0,0,1-.886-.554c-.512-.465-.376-.983.279-1.192,1.843-.589,1.854-.629.789-2.254a9.737,9.737,0,0,1-.658-1.155c-.206-.434,0-.856.433-.774,1.336.252,2.768.085,3.982.932a1.808,1.808,0,0,1,.843,1.3c.067.457.173.909.3,1.565.458-.854.8-1.548,1.2-2.208.135-.223.417-.5.623-.5s.447.329.544.566c.3.726.532,1.478.876,2.221-.038-1.167.87-2.207.344-3.437-.492-1.15-.926-2.325-1.435-3.614l.73-.983A25.664,25.664,0,0,1,28.6,62.114c.465,1.468.7,3.007,1.039,4.516v1.482c-.041.215-.1.429-.12.646a14.359,14.359,0,0,1-8.979,12.233,29.376,29.376,0,0,1-4.536,1.2h-2.52a2.347,2.347,0,0,0-.415-.124A14.67,14.67,0,0,1,.595,71.372C.312,70.307.194,69.2,0,68.112v-1.63m19.669,1.467c.721.633.382,1.285.007,1.918a6.473,6.473,0,0,1-.762,1.09,2.413,2.413,0,0,0-.584,2.566,1.413,1.413,0,0,1-.64,1.731c-.175.118-.459.376-.425.457.392.938-.5,1.356-.812,1.977a2.429,2.429,0,0,1-2.828,1.08.854.854,0,0,1-.422-.515c-.212-.652-.392-1.316-.547-1.984-.138-.6-.464-1.286-.287-1.787a2.983,2.983,0,0,0-.4-2.791,2.018,2.018,0,0,1-.2-.781c-.074-.536-.345-.8-.9-.724a4.312,4.312,0,0,1-.949.113,3.267,3.267,0,0,1-1.588-.311c-1.809-1.4-1.713-4.357-.732-5.8.289-.424.706-.759,1.012-1.173a4.321,4.321,0,0,1,3.314-1.836c.672-.051,1.068.089,1.028.844-.024.445.365.774.611.561.661-.572,1.178-.144,1.771.021a2.732,2.732,0,0,0,.8.014c-.459-.3-.908-.589-1.361-.875-.249-.157-.505-.3-.759-.452a13.518,13.518,0,0,1-1.706-1.023,1.074,1.074,0,0,0-1.2-.154,12.136,12.136,0,0,1-2.129.586c-.67.107-.915-.281-.665-.9.786-1.941.787-1.94,2.664-2.889.1-.052.2-.118.335-.2a3.289,3.289,0,0,1-.265-.3c-.58-.88-.494-1.28.377-1.864.251-.168.484-.362.811-.608a1.667,1.667,0,0,0-.3-.03A13.838,13.838,0,0,0,1.227,69.531,1.554,1.554,0,0,0,2.394,71.01c.422.118.8.38,1.217.531a.912.912,0,0,1,.63,1.225c-.145.572-.322,1.136-.469,1.707a1.389,1.389,0,0,0,.211,1.382c3.794,4.508,8.582,6.192,14.3,4.82a13.471,13.471,0,0,0,10.207-12.6c-.207.079-.405.158-.6.231-.909.331-1.067.255-1.4-.664-.195-.533-.392-1.066-.635-1.725-.262.481-.43.836-.641,1.163a4.2,4.2,0,0,1-.782,1.041c-.659.528-.99.373-1.159-.445a17.7,17.7,0,0,1-.4-2.029A1.317,1.317,0,0,0,21.8,64.474a9.359,9.359,0,0,0-1.624-.25c1.118,2.742,1.113,2.78-.507,3.724m-16.8,5.735c.517-1.156.4-1.388-.751-1.5.194.435.376.854.568,1.268a1.287,1.287,0,0,0,.183.23" transform="translate(0 -44.842)"/>
    <path id="Trazado_30521" data-name="Trazado 30521" d="M110.363,0c.51.167,1.037.3,1.527.509a6.7,6.7,0,0,1,3.785,7.2,12.023,12.023,0,0,1-5.245,8.48,1.418,1.418,0,0,1-1.872-.012,12.451,12.451,0,0,1-5.534-8.391,6.708,6.708,0,0,1,5.3-7.643A3.411,3.411,0,0,0,108.733,0Zm-.828,15.607c3.313-2.394,5.336-5.412,5.119-9.616a5.232,5.232,0,0,0-4.881-4.952,5.7,5.7,0,0,0-5.7,6.947c.645,3.336,2.653,5.692,5.467,7.622" transform="translate(-87.687)"/>
    <path id="Trazado_30522" data-name="Trazado 30522" d="M129.83,24.706a2.783,2.783,0,0,1,2.8,2.827,2.84,2.84,0,0,1-2.833,2.822,2.871,2.871,0,0,1-2.811-2.857,2.809,2.809,0,0,1,2.844-2.792" transform="translate(-108.165 -21.044)"/>
  </g>
</svg>
