<svg id="Grupo_9777" data-name="Grupo 9777" xmlns="http://www.w3.org/2000/svg" xmlns:xlink="http://www.w3.org/1999/xlink" width="28.096" height="38.193" viewBox="0 0 28.096 38.193">
  <defs>
    <clipPath id="clip-path">
      <rect id="Rectángulo_4979" data-name="Rectángulo 4979" width="28.096" height="38.193" fill="none"/>
    </clipPath>
  </defs>
  <g id="Grupo_9776" data-name="Grupo 9776" clip-path="url(#clip-path)">
    <path id="Trazado_30550" data-name="Trazado 30550" d="M6.374,2.786C6.834.569,7.335-.047,8.588,0c1.2.047,1.731.77,1.961,2.716h7C17.822.71,18.344.023,19.585,0s1.749.629,2.122,2.784c.634,0,1.288-.006,1.943,0a4.2,4.2,0,0,1,4.406,4.223q.077,8.407,0,16.814c-.025,2.543-1.917,4.223-4.585,4.232-4.57.015-9.14,0-13.711,0-1.725,0-3.45.017-5.174,0a4.282,4.282,0,0,1-4.58-4.588q-.013-8.106,0-16.211a4.249,4.249,0,0,1,4.5-4.473c.627,0,1.254,0,1.862,0M1.221,8.656c-.014.249-.034.445-.034.641,0,4.743-.01,9.486,0,14.228a3.119,3.119,0,0,0,3.4,3.37q9.4.014,18.8,0A3.185,3.185,0,0,0,26.9,23.348q0-6.812.007-13.625c0-.337,0-.675,0-1.068ZM1.26,7.363H26.82c.165-2.713-1.952-3.872-5.171-3.28-.171,1.785-.706,2.583-1.875,2.618a1.722,1.722,0,0,1-1.265-.368A15.951,15.951,0,0,1,17.281,4H10.553c-.231,1.911-.781,2.66-1.968,2.723-1.165.061-1.643-.528-2.2-2.709C2.863,3.66,1,4.853,1.26,7.363M9.3,3.39H9.284a5.312,5.312,0,0,0-.035-1.454,1.1,1.1,0,0,0-.774-.69,1.048,1.048,0,0,0-.748.707,12.661,12.661,0,0,0,0,2.749c.034.3.5.557.775.833.267-.284.651-.527.769-.864A4.069,4.069,0,0,0,9.3,3.39m11.1.047H20.4a5.72,5.72,0,0,0-.032-1.456c-.083-.306-.461-.724-.722-.735a1.032,1.032,0,0,0-.781.659,15.889,15.889,0,0,0,0,2.922c.022.256.489.685.709.659a1.162,1.162,0,0,0,.79-.682A4.583,4.583,0,0,0,20.4,3.437" transform="translate(0 0)"/>
    <path id="Trazado_30551" data-name="Trazado 30551" d="M135.906,215.042l.1,1,.925-.88.125.962h-1.944l.791-1.077" transform="translate(-111.795 -177.927)"/>
    <rect id="Rectángulo_4967" data-name="Rectángulo 4967" width="2.069" height="2.005" transform="translate(20.82 12.1)"/>
    <rect id="Rectángulo_4968" data-name="Rectángulo 4968" width="2.036" height="2.015" transform="translate(20.849 16.767)"/>
    <rect id="Rectángulo_4969" data-name="Rectángulo 4969" width="2.061" height="1.995" transform="translate(20.824 21.253)"/>
    <rect id="Rectángulo_4970" data-name="Rectángulo 4970" width="2.01" height="2.028" transform="translate(15.677 12.089)"/>
    <rect id="Rectángulo_4971" data-name="Rectángulo 4971" width="2.013" height="2.022" transform="translate(15.678 16.783)"/>
    <rect id="Rectángulo_4972" data-name="Rectángulo 4972" width="2.036" height="2.022" transform="translate(15.672 21.229)"/>
    <rect id="Rectángulo_4973" data-name="Rectángulo 4973" width="2.014" height="1.995" transform="translate(5.204 12.109)"/>
    <rect id="Rectángulo_4974" data-name="Rectángulo 4974" width="2.004" height="2.008" transform="translate(10.262 12.089)"/>
    <rect id="Rectángulo_4975" data-name="Rectángulo 4975" width="2.002" height="2.013" transform="translate(5.213 16.782)"/>
    <rect id="Rectángulo_4976" data-name="Rectángulo 4976" width="1.994" height="2.012" transform="translate(10.266 16.786)"/>
    <rect id="Rectángulo_4977" data-name="Rectángulo 4977" width="2.005" height="1.985" transform="translate(5.226 21.247)"/>
    <rect id="Rectángulo_4978" data-name="Rectángulo 4978" width="1.987" height="1.997" transform="translate(10.282 21.256)"/>
  </g>
</svg>
