<svg xmlns="http://www.w3.org/2000/svg" xmlns:xlink="http://www.w3.org/1999/xlink" width="26.49" height="46" viewBox="0 0 26.49 46">
  <defs>
    <clipPath id="clip-path">
      <rect id="Rectángulo_4959" data-name="Rectángulo 4959" width="26.49" height="46" transform="translate(0 0)" fill="none"/>
    </clipPath>
  </defs>
  <g id="Grupo_9748" data-name="Grupo 9748" transform="translate(0 0.005)">
    <g id="Grupo_9747" data-name="Grupo 9747" transform="translate(0 -0.005)" clip-path="url(#clip-path)">
      <path id="Trazado_30516" data-name="Trazado 30516" d="M0,3.109V42.881c.025.152.043.305.077.455a3.365,3.365,0,0,0,3.337,2.659H23.06a3.423,3.423,0,0,0,1.273-.227,3.369,3.369,0,0,0,2.157-3.206q0-19.565,0-39.129c0-.132-.006-.265-.018-.4A3.361,3.361,0,0,0,24.046.128C23.828.068,23.6.039,23.378,0H3.113a.725.725,0,0,1-.085.019A3.359,3.359,0,0,0,.133,2.441c-.06.218-.089.445-.133.668m25.144,34.8v.1q0,2.307,0,4.615a1.9,1.9,0,0,1-.034.362,2.014,2.014,0,0,1-2.033,1.659q-9.828,0-19.657,0a2.169,2.169,0,0,1-.406-.033A2.014,2.014,0,0,1,1.347,42.6q0-2.285,0-4.571c0-.036,0-.071.005-.115H20.3c.055,0,.111,0,.165,0a.674.674,0,0,0,.622-.522.645.645,0,0,0-.333-.736.991.991,0,0,0-.413-.085q-9.415-.006-18.829,0H1.356V6.738H25.134V36.562H25c-.607,0-1.214,0-1.821,0a.934.934,0,0,0-.281.039.666.666,0,0,0-.446.728.675.675,0,0,0,.676.579c.548,0,1.1,0,1.645,0h.367M1.347,5.38V5.267c0-.622,0-1.244,0-1.866A2.018,2.018,0,0,1,3.4,1.343q9.845,0,19.69,0A2.018,2.018,0,0,1,25.144,3.4c0,.626,0,1.251,0,1.877v.1Z" transform="translate(0 0.005)"/>
      <path id="Trazado_30517" data-name="Trazado 30517" d="M512.1,1779.089a2.02,2.02,0,1,0-2.008,2.025,2.021,2.021,0,0,0,2.008-2.025m-2.025-.669a.673.673,0,1,1-.667.677.671.671,0,0,1,.667-.677" transform="translate(-496.838 -1737.81)"/>
      <path id="Trazado_30518" data-name="Trazado 30518" d="M571.095,123.289h1.313a.674.674,0,1,0,0-1.347q-1.329,0-2.659,0a.673.673,0,0,0-.12,1.335.882.882,0,0,0,.165.011h1.3" transform="translate(-559.196 -119.247)"/>
      <path id="Trazado_30519" data-name="Trazado 30519" d="M447.791,123.327a.673.673,0,1,0-.678-.666.673.673,0,0,0,.678.666" transform="translate(-431.846 -119.285)"/>
    </g>
  </g>
</svg>
