<svg id="Grupo_9775" data-name="Grupo 9775" xmlns="http://www.w3.org/2000/svg" xmlns:xlink="http://www.w3.org/1999/xlink" width="31.736" height="38.673" viewBox="0 0 31.736 38.673">
  <defs>
    <clipPath id="clip-path">
      <rect id="Rectángulo_4966" data-name="Rectángulo 4966" width="31.736" height="38.673" fill="#707070"/>
    </clipPath>
  </defs>
  <g id="Grupo_9774" data-name="Grupo 9774" clip-path="url(#clip-path)">
    <path id="Trazado_30545" data-name="Trazado 30545" d="M29.8,38.673H1.942C.419,38.185-.011,37.077,0,35.567.041,29.7.016,23.829.017,17.959c0-.219-.006-.439,0-.658a2.375,2.375,0,0,1,2.446-2.4c.89-.008,1.779,0,2.669,0h.441v-.472c0-1.316-.028-2.632.01-3.947A12.459,12.459,0,0,1,5.827,8.1a10.187,10.187,0,0,1,8.4-7.945,9.687,9.687,0,0,1,6.643,1.161,10.119,10.119,0,0,1,5.3,9.136c.02,1.341,0,2.683,0,4.025,0,.135.012.27.019.421,1.067,0,2.085,0,3.1,0a2.4,2.4,0,0,1,1.687.652A2.815,2.815,0,0,1,31.736,17V36.583a2.556,2.556,0,0,1-.991,1.618,8.751,8.751,0,0,1-.943.472m-13.931-22.2H2.716c-.86,0-1.1.242-1.1,1.11q0,9.194,0,18.387c0,.892.229,1.124,1.121,1.124H29.009c.891,0,1.119-.232,1.119-1.126q0-9.174,0-18.348c0-.919-.226-1.146-1.141-1.146H15.871m8.688-1.594a2.291,2.291,0,0,0,.033-.271c0-1.418.011-2.837,0-4.255a8.712,8.712,0,0,0-13.42-7.354A8.184,8.184,0,0,0,7.221,9.528c-.133,1.693-.054,3.4-.068,5.1a2.146,2.146,0,0,0,.027.242Z" transform="translate(0 0)" fill="#707070"/>
    <path id="Trazado_30546" data-name="Trazado 30546" d="M63.31,324.858a1.583,1.583,0,1,1-1.575,1.569,1.568,1.568,0,0,1,1.575-1.569" transform="translate(-56.946 -299.657)" fill="#707070"/>
    <path id="Trazado_30547" data-name="Trazado 30547" d="M309.96,326.424a1.581,1.581,0,0,1-1.551,1.6,1.583,1.583,0,1,1-.025-3.166,1.568,1.568,0,0,1,1.576,1.567" transform="translate(-283.005 -299.656)" fill="#707070"/>
    <path id="Trazado_30548" data-name="Trazado 30548" d="M143.454,326.45a1.576,1.576,0,1,1,3.153-.007,1.576,1.576,0,0,1-3.153.007" transform="translate(-132.325 -299.656)" fill="#707070"/>
    <path id="Trazado_30549" data-name="Trazado 30549" d="M228.281,326.43a1.576,1.576,0,1,1-1.572-1.572,1.583,1.583,0,0,1,1.572,1.572" transform="translate(-207.666 -299.657)" fill="#707070"/>
  </g>
</svg>
