<svg id="Grupo_9801" data-name="Grupo 9801" xmlns="http://www.w3.org/2000/svg" xmlns:xlink="http://www.w3.org/1999/xlink" width="85.808" height="133.3" viewBox="0 0 85.808 133.3">
  <defs>
    <clipPath id="clip-path">
      <rect id="Rectángulo_4961" data-name="Rectángulo 4961" width="85.808" height="133.3" fill="#2162a0"/>
    </clipPath>
  </defs>
  <g id="Grupo_9751" data-name="Grupo 9751" clip-path="url(#clip-path)">
    <path id="Trazado_30523" data-name="Trazado 30523" d="M40.451,0C67.335.1,86.771,20.164,85.86,44.285c-.232,6.144-2.588,11.791-5.152,17.293C74.119,75.72,65.341,88.5,56.028,100.936c-3.4,4.543-6.964,8.97-10.53,13.388-1.523,1.887-3.461,1.89-4.97.024C27.578,98.332,15.3,81.854,6.155,63.281,3.672,58.241,1.408,53.071.617,47.469c-1.7-12.006,1.788-22.655,9.4-31.862C18.545,5.291,29.735.216,40.451,0m2.536,107.906c.489-.6.817-.965,1.11-1.359,5.044-6.78,10.23-13.46,15.09-20.37,6.861-9.756,13.2-19.837,17.793-30.92,2.572-6.21,3.637-12.545,2.285-19.223A36.932,36.932,0,0,0,31.8,7.762C17.594,12.108,7.046,25.793,6.232,40.649c-.344,6.278,1.537,11.969,4.088,17.484C18.7,76.249,30.684,92.011,42.988,107.906" transform="translate(-0.122)" fill="#2162a0"/>
    <path id="Trazado_30524" data-name="Trazado 30524" d="M43.63,291.966c9.349-.156,19.129-1.027,28.4-4.8a24.953,24.953,0,0,0,5.57-3.14c2.94-2.216,2.872-4.274,0-6.575-3.582-2.873-7.888-4.14-12.2-5.355-1.212-.341-2.469-.527-3.672-.894a2.967,2.967,0,0,1,1.367-5.769c6.03,1.184,11.906,2.838,17.058,6.363,2.722,1.863,4.985,4.171,5.533,7.586.612,3.809-1.116,6.749-3.921,9.12-4.152,3.509-9.127,5.391-14.3,6.608a102.14,102.14,0,0,1-51.816-.783,28.659,28.659,0,0,1-12-6.184c-4.938-4.551-4.852-10.541.219-14.926,4.627-4,10.287-5.739,16.051-7.226.975-.252,1.968-.438,2.96-.618a3.04,3.04,0,0,1,3.7,2.376,3.135,3.135,0,0,1-2.444,3.52c-4.081,1.263-8.183,2.472-12.2,3.911a13.876,13.876,0,0,0-3.979,2.5c-2.544,2.111-2.627,4.421.119,6.2a41.973,41.973,0,0,0,8.915,4.426c8.435,2.924,17.244,3.588,26.646,3.661" transform="translate(0 -164.767)" fill="#2162a0"/>
    <path id="Trazado_30525" data-name="Trazado 30525" d="M103.271,75.159a17.789,17.789,0,1,1-35.577.007,17.789,17.789,0,1,1,35.577-.007m-6.027.276A11.81,11.81,0,0,0,85.529,63.345a11.819,11.819,0,0,0-.15,23.636A11.813,11.813,0,0,0,97.244,75.435" transform="translate(-42.04 -35.59)" fill="#2162a0"/>
  </g>
</svg>
