<svg id="Grupo_9775" data-name="Grupo 9775" xmlns="http://www.w3.org/2000/svg" xmlns:xlink="http://www.w3.org/1999/xlink" width="116.751" height="142.268" viewBox="0 0 116.751 142.268">
  <defs>
    <clipPath id="clip-path">
      <rect id="Rectángulo_4966" data-name="Rectángulo 4966" width="116.751" height="142.268" fill="#2162a0"/>
    </clipPath>
  </defs>
  <g id="Grupo_9774" data-name="Grupo 9774" clip-path="url(#clip-path)">
    <path id="Trazado_30545" data-name="Trazado 30545" d="M109.634,142.269H7.147c-5.6-1.8-7.185-5.872-7.147-11.427.151-21.59.061-43.182.062-64.774,0-.807-.02-1.614.005-2.42a8.738,8.738,0,0,1,9-8.843c3.272-.031,6.545-.006,9.819-.007h1.622V53.062c0-4.84-.1-9.684.039-14.52a45.834,45.834,0,0,1,.893-8.751A37.477,37.477,0,0,1,52.33.564,35.637,35.637,0,0,1,76.767,4.836c12.8,7.459,19.279,18.773,19.5,33.61.072,4.934.01,9.87.015,14.806,0,.5.043.995.068,1.548,3.926,0,7.671.015,11.416-.006a8.824,8.824,0,0,1,6.205,2.4,10.357,10.357,0,0,1,2.784,5.33v72.057c-.616,2.354-1.52,4.565-3.646,5.954a32.192,32.192,0,0,1-3.471,1.736M58.386,60.584q-24.2,0-48.395,0c-3.163,0-4.046.892-4.046,4.083q0,33.821,0,67.642c0,3.283.841,4.134,4.125,4.134q48.325,0,96.65,0c3.278,0,4.115-.852,4.115-4.144q0-33.75,0-67.5c0-3.379-.833-4.216-4.2-4.216H58.386m31.961-5.865a8.431,8.431,0,0,0,.121-1c.007-5.218.042-10.437-.008-15.655a31.51,31.51,0,0,0-4.249-16.032C76.677,5.924,56.9,1.012,41.09,11.013A30.109,30.109,0,0,0,26.565,35.052c-.489,6.227-.2,12.514-.252,18.775a7.9,7.9,0,0,0,.1.892Z" transform="translate(0 0)" fill="#2162a0"/>
    <path id="Trazado_30546" data-name="Trazado 30546" d="M67.528,324.858a5.824,5.824,0,1,1-5.792,5.773,5.768,5.768,0,0,1,5.792-5.773" transform="translate(-44.117 -232.15)" fill="#2162a0"/>
    <path id="Trazado_30547" data-name="Trazado 30547" d="M318.412,330.623a5.817,5.817,0,0,1-5.706,5.88,5.823,5.823,0,1,1-.093-11.646,5.768,5.768,0,0,1,5.8,5.766" transform="translate(-219.249 -232.149)" fill="#2162a0"/>
    <path id="Trazado_30548" data-name="Trazado 30548" d="M143.454,330.719a5.8,5.8,0,1,1,11.6-.027,5.8,5.8,0,0,1-11.6.027" transform="translate(-102.515 -232.149)" fill="#2162a0"/>
    <path id="Trazado_30549" data-name="Trazado 30549" d="M236.723,330.643a5.8,5.8,0,1,1-5.781-5.785,5.824,5.824,0,0,1,5.781,5.785" transform="translate(-160.882 -232.15)" fill="#2162a0"/>
  </g>
</svg>
